<svg width="32" height="32" viewBox="0 0 32 32" fill="none" xmlns="http://www.w3.org/2000/svg">
<path d="M27.3437 24.1625L19.1812 16L27.3437 7.8375C28.225 6.95625 28.225 5.5375 27.3437 4.65625C26.4625 3.775 25.0437 3.775 24.1625 4.65625L16 12.8187L7.83749 4.65625C6.95624 3.775 5.53749 3.775 4.65624 4.65625C3.77499 5.5375 3.77499 6.95625 4.65624 7.8375L12.8187 16L4.65624 24.1625C3.77499 25.0438 3.77499 26.4625 4.65624 27.3438C5.53749 28.225 6.95624 28.225 7.83749 27.3438L16 19.1812L24.1625 27.3438C25.0437 28.225 26.4625 28.225 27.3437 27.3438C28.2187 26.4625 28.2187 25.0375 27.3437 24.1625Z" fill="white"/>
</svg>
